<svg xmlns="http://www.w3.org/2000/svg" width="29.265" height="29.268" viewBox="0 0 29.265 29.268"><defs><style>.a{fill:none;}.b{fill:#fff;}</style></defs><path class="a" d="M0,0H29.265V29.268H0Z"/><path class="b" d="M2,10.927V4.219A1.219,1.219,0,0,1,3.219,3H25.168a1.219,1.219,0,0,1,1.219,1.219v6.707a3.049,3.049,0,0,0,0,6.1v6.707a1.219,1.219,0,0,1-1.219,1.219H3.219A1.219,1.219,0,0,1,2,23.731V17.024a3.049,3.049,0,0,0,0-6.1ZM4.439,9.058a5.488,5.488,0,0,1,0,9.834v3.619h19.51V18.892a5.488,5.488,0,0,1,0-9.834V5.439H4.439Zm6.1,1.259h7.316v2.439H10.536Zm0,4.878h7.316v2.439H10.536Z" transform="translate(0.439 0.658)"/></svg>