<svg xmlns="http://www.w3.org/2000/svg" width="28.164" height="28.166" viewBox="0 0 28.164 28.166"><defs><style>.a{fill:none;}.b{fill:#515151;}</style></defs><path class="a" d="M0,0H28.165V28.167H0Z"/><path class="b" d="M2,10.629V4.174A1.174,1.174,0,0,1,3.174,3H24.3A1.174,1.174,0,0,1,25.47,4.174v6.455a2.934,2.934,0,0,0,0,5.868v6.455A1.174,1.174,0,0,1,24.3,24.125H3.174A1.174,1.174,0,0,1,2,22.952V16.5a2.934,2.934,0,0,0,0-5.868Zm2.347-1.8a5.282,5.282,0,0,1,0,9.464v3.483H23.123V18.295a5.282,5.282,0,0,1,0-9.464V5.347H4.347Zm5.868,1.211h7.041v2.347H10.215Zm0,4.694h7.041v2.347H10.215Z" transform="translate(0.347 0.521)"/></svg>