<svg xmlns="http://www.w3.org/2000/svg" width="28.164" height="28.166" viewBox="0 0 28.164 28.166"><defs><style>.a{fill:none;}.b{fill:#515151;}</style></defs><path class="a" d="M0,0H28.165V28.167H0Z"/><path class="b" d="M2,4.174A1.174,1.174,0,0,1,3.174,3H24.3A1.174,1.174,0,0,1,25.47,4.174v6.455a2.934,2.934,0,0,0,0,5.868v6.455A1.174,1.174,0,0,1,24.3,24.125H3.174A1.174,1.174,0,0,1,2,22.952Zm7.141,17.6a1.76,1.76,0,0,1,3.321,0H23.123V18.295a5.282,5.282,0,0,1,0-9.464V5.347H12.462a1.76,1.76,0,0,1-3.321,0H4.347V21.778ZM10.8,12.389a1.76,1.76,0,1,1,1.76-1.76A1.76,1.76,0,0,1,10.8,12.389Zm0,5.868a1.76,1.76,0,1,1,1.76-1.76A1.76,1.76,0,0,1,10.8,18.257Z" transform="translate(0.347 0.521)"/></svg>