<svg xmlns="http://www.w3.org/2000/svg" width="29.265" height="29.268" viewBox="0 0 29.265 29.268"><defs><style>.a{fill:none;}.b{fill:#fff;}</style></defs><path class="a" d="M0,0H29.265V29.268H0Z"/><path class="b" d="M2,4.219A1.219,1.219,0,0,1,3.219,3H25.168a1.219,1.219,0,0,1,1.219,1.219v6.707a3.049,3.049,0,0,0,0,6.1v6.707a1.219,1.219,0,0,1-1.219,1.219H3.219A1.219,1.219,0,0,1,2,23.731ZM9.42,22.512a1.829,1.829,0,0,1,3.451,0H23.949V18.892a5.488,5.488,0,0,1,0-9.834V5.439H12.871a1.829,1.829,0,0,1-3.451,0H4.439V22.512Zm1.725-9.756a1.829,1.829,0,1,1,1.829-1.829A1.829,1.829,0,0,1,11.145,12.756Zm0,6.1a1.829,1.829,0,1,1,1.829-1.829A1.829,1.829,0,0,1,11.145,18.853Z" transform="translate(0.439 0.658)"/></svg>