<svg xmlns="http://www.w3.org/2000/svg" width="29.266" height="29.268" viewBox="0 0 29.266 29.268"><defs><style>.a{fill:none;}.b{fill:#fff;}</style></defs><path class="a" d="M0,0H29.266V29.268H0Z"/><path class="b" d="M18.072,2A4.878,4.878,0,0,1,22.3,9.318h5.531v2.439H25.388V23.951a1.219,1.219,0,0,1-1.219,1.219H4.658a1.219,1.219,0,0,1-1.219-1.219V11.756H1V9.317H6.531a4.878,4.878,0,0,1,7.882-5.666A4.857,4.857,0,0,1,18.072,2Zm-4.878,9.756H5.878V22.731h7.316Zm9.755,0H15.633V22.731h7.316ZM10.755,4.439a2.439,2.439,0,0,0-.183,4.872l.183.006h2.439V6.878a2.439,2.439,0,0,0-2.069-2.411l-.188-.022Zm7.316,0A2.439,2.439,0,0,0,15.639,6.7l-.006.183V9.317h2.439A2.439,2.439,0,0,0,20.5,7.061l.006-.183A2.439,2.439,0,0,0,18.072,4.439Z" transform="translate(0.219 0.439)"/></svg>