<svg xmlns="http://www.w3.org/2000/svg" width="28.166" height="28.166" viewBox="0 0 28.166 28.166"><defs><style>.a{fill:none;}.b{fill:#515151;}</style></defs><path class="a" d="M0,0H28.165V28.167H0Z"/><path class="b" d="M17.43,2a4.694,4.694,0,0,1,4.065,7.043h5.323v2.347H24.471V23.125A1.174,1.174,0,0,1,23.3,24.3H4.521a1.174,1.174,0,0,1-1.174-1.174V11.389H1V9.042H6.323A4.694,4.694,0,0,1,13.909,3.59,4.674,4.674,0,0,1,17.43,2Zm-4.694,9.389H5.694V21.952h7.041Zm9.388,0H15.083V21.952h7.041ZM10.388,4.347a2.347,2.347,0,0,0-.176,4.689l.176.006h2.347V6.694a2.347,2.347,0,0,0-1.992-2.32l-.181-.021Zm7.041,0a2.347,2.347,0,0,0-2.341,2.171l-.006.176V9.042H17.43a2.347,2.347,0,0,0,2.341-2.171l.006-.176A2.347,2.347,0,0,0,17.43,4.347Z" transform="translate(0.174 0.347)"/></svg>