<svg xmlns="http://www.w3.org/2000/svg" width="28.164" height="28.166" viewBox="0 0 28.164 28.166"><defs><style>.a{fill:none;}.b{fill:#515151;}</style></defs><path class="a" d="M0,0H28.164V28.167H0Z"/><path class="b" d="M24.636,14.657l.015.016L13.864,25.462,3.078,14.674l.015-.016A7.628,7.628,0,0,1,13.864,3.914,7.628,7.628,0,0,1,24.636,14.657ZM5.151,5.96a5.282,5.282,0,0,0,0,7.469l8.713,8.714,8.713-8.714A5.281,5.281,0,0,0,15.109,5.96l-4.979,4.98L8.471,9.277l3.711-3.711a5.28,5.28,0,0,0-7.029.392Z" transform="translate(0.218 0.358)"/></svg>