<svg xmlns="http://www.w3.org/2000/svg" width="29.265" height="29.268" viewBox="0 0 29.265 29.268"><defs><style>.a{fill:none;}.b{fill:#fff;}</style></defs><path class="a" d="M0,0H29.265V29.268H0Z"/><path class="b" d="M25.55,15.15l.016.017L14.357,26.376,3.149,15.167l.016-.017A7.926,7.926,0,0,1,14.357,3.986,7.926,7.926,0,0,1,25.55,15.15ZM5.3,6.112a5.488,5.488,0,0,0,0,7.761l9.054,9.055,9.054-9.055a5.487,5.487,0,0,0-7.76-7.761l-5.174,5.174L8.753,9.559,12.609,5.7a5.487,5.487,0,0,0-7.3.407Z" transform="translate(0.275 0.453)"/></svg>