<svg xmlns="http://www.w3.org/2000/svg" width="29.268" height="29.268" viewBox="0 0 29.268 29.268"><defs><style>.a{fill:none;}.b{fill:#fff;}</style></defs><path class="a" d="M0,0H29.268V29.268H0Z"/><path class="b" d="M7.268,2H20.683a1.219,1.219,0,0,1,.976.488l3.293,4.39V25.17a1.219,1.219,0,0,1-1.219,1.219H4.219A1.219,1.219,0,0,1,3,25.17V6.878l3.293-4.39A1.219,1.219,0,0,1,7.268,2ZM22.512,9.317H5.439V23.951H22.512ZM21.9,6.878,20.073,4.439H7.878L6.049,6.878ZM10.317,11.756v2.439a3.658,3.658,0,1,0,7.317,0V11.756h2.439v2.439a6.1,6.1,0,1,1-12.195,0V11.756Z" transform="translate(0.658 0.439)"/></svg>